<svg viewBox="0 0 64 37" xmlns="http://www.w3.org/2000/svg" xmlns:xlink="http://www.w3.org/1999/xlink" width="64.000000" height="37.000000" fill="none" customFrame="#000000">
	<path id="Vector" d="M0 0L11.0169 0L20.3624 22.9082L20.7938 22.9082L30.1393 0L45.6773 0Q51.3443 0 55.4361 2.22217Q57.358 3.25285 58.8682 4.71019Q60.5874 6.36936 61.773 8.58154C63.2577 11.3397 64 14.6398 64 18.4819C64 22.3361 63.2577 25.6483 61.773 28.4185Q60.6212 30.5854 58.9523 32.2266Q57.4209 33.7325 55.4542 34.7959C52.7143 36.2653 49.4613 37 45.6954 37L31.9896 37L31.9896 14.7774L23.3458 36.7651L17.8104 36.7651L8.9681 14.146L8.66257 14.146L8.66257 37L0 37L0 0ZM41.1562 29.376L45.3514 29.376C47.4275 29.376 49.1837 29.0267 50.6201 28.3281C52.0685 27.6175 53.1609 26.4673 53.8972 24.8774C54.6455 23.2756 55.0197 21.1437 55.0197 18.4819C55.0197 15.8202 54.6455 13.7004 53.8972 12.1226C53.1488 10.5327 52.0444 9.38851 50.5839 8.68994Q48.4112 7.62402 45.2247 7.62402L41.1562 7.62402L41.1562 29.376Z" fill="rgb(223.412,0,0)" fill-rule="evenodd" />
</svg>
