<svg viewBox="0 0 12.0245 6.00363" xmlns="http://www.w3.org/2000/svg" xmlns:xlink="http://www.w3.org/1999/xlink" width="12.024536" height="6.003632" fill="none" customFrame="#000000">
	<path id="Vector" d="M6.00125 6.00125C5.7676 6.00171 5.54116 5.92033 5.36125 5.77125L0.361252 1.77125C0.157036 1.60151 0.0286112 1.3576 0.0042315 1.09318C-0.0201482 0.82875 0.0615137 0.565468 0.231252 0.361252C0.400991 0.157035 0.644902 0.0286113 0.909329 0.00423152C1.17375 -0.0201482 1.43704 0.0615131 1.64125 0.231252L6.00125 3.71125L10.3613 0.391253C10.4635 0.308187 10.5812 0.246155 10.7076 0.208723C10.8339 0.171291 10.9664 0.159198 11.0974 0.173137C11.2285 0.187076 11.3554 0.226773 11.4711 0.289947C11.5867 0.35312 11.6887 0.438526 11.7713 0.541252C11.8628 0.644074 11.9322 0.7647 11.975 0.895574C12.0178 1.02645 12.0331 1.16475 12.0199 1.30181C12.0068 1.43887 11.9655 1.57175 11.8986 1.6921C11.8317 1.81246 11.7407 1.91771 11.6313 2.00125L6.63125 5.83125C6.44617 5.95677 6.22435 6.01662 6.00125 6.00125Z" fill="rgb(255,255,255)" fill-rule="nonzero" />
</svg>
