<svg viewBox="0 0 24 24" xmlns="http://www.w3.org/2000/svg" xmlns:xlink="http://www.w3.org/1999/xlink" width="24.000000" height="24.000000" fill="none" customFrame="#000000">
	<rect id="vuesax/linear/bag" width="24.000000" height="24.000000" x="0.000000" y="0.000000" fill="rgb(255,255,255)" fill-opacity="0" />
	<g id="vuesax/linear/bag">
		<g id="bag">
			<path id="Vector" d="M8.80994 2L5.18994 5.63" stroke="rgb(0,0,0)" stroke-linecap="round" stroke-linejoin="round" stroke-width="1.5" />
			<path id="Vector" d="M15.1899 2L18.8099 5.63" stroke="rgb(0,0,0)" stroke-linecap="round" stroke-linejoin="round" stroke-width="1.5" />
			<path id="Vector" d="M4.22 5.85001L19.78 5.85001C21.01 5.85001 22 6.00001 22 7.85001C22 10 21.01 9.85001 19.78 9.85001L4.22 9.85001C2.99 9.85001 2 10 2 7.85001C2 6.00001 2.99 5.85001 4.22 5.85001Z" fill-rule="nonzero" stroke="rgb(0,0,0)" stroke-width="1.5" />
			<path id="Vector" d="M0 0L3.55 0" stroke="rgb(0,0,0)" stroke-linecap="round" stroke-width="1.5" transform="matrix(0,1,-1,0,9.76001,14)" />
			<path id="Vector" d="M0 0L3.55 0" stroke="rgb(0,0,0)" stroke-linecap="round" stroke-width="1.5" transform="matrix(0,1,-1,0,14.36,14)" />
			<path id="Vector" d="M3.5 10L4.91 18.64C5.23 20.58 6 22 8.86 22L14.89 22C18 22 18.46 20.64 18.82 18.76L20.5 10" fill-rule="nonzero" stroke="rgb(0,0,0)" stroke-linecap="round" stroke-width="1.5" />
			<path id="Vector" opacity="0" />
		</g>
	</g>
</svg>
