<svg viewBox="0 0 24 24" xmlns="http://www.w3.org/2000/svg" xmlns:xlink="http://www.w3.org/1999/xlink" width="24.000000" height="24.000000" fill="none" customFrame="#000000">
	<rect id="vuesax/linear/candle-2" width="24.000000" height="24.000000" x="0.000000" y="0.000000" fill="rgb(255,255,255)" fill-opacity="0" />
	<g id="vuesax/linear/candle-2">
		<g id="candle-2">
			<path id="Vector" d="M22 17.5L15 17.5" stroke="rgb(41,45,50)" stroke-linecap="round" stroke-linejoin="round" stroke-width="1.5" />
			<path id="Vector" d="M5 17.5L2 17.5" stroke="rgb(41,45,50)" stroke-linecap="round" stroke-linejoin="round" stroke-width="1.5" />
			<path id="Vector" d="M22 6.5L19 6.5" stroke="rgb(41,45,50)" stroke-linecap="round" stroke-linejoin="round" stroke-width="1.5" />
			<path id="Vector" d="M9 6.5L2 6.5" stroke="rgb(41,45,50)" stroke-linecap="round" stroke-linejoin="round" stroke-width="1.5" />
			<path id="Vector" d="M13 14.5C14.1 14.5 15 15 15 16.5L15 18.5C15 20 14.1 20.5 13 20.5L7 20.5C5.9 20.5 5 20 5 18.5L5 16.5C5 15 5.9 14.5 7 14.5L13 14.5Z" fill-rule="nonzero" stroke="rgb(41,45,50)" stroke-linecap="round" stroke-linejoin="round" stroke-width="1.5" />
			<path id="Vector" d="M17 3.5C18.1 3.5 19 4 19 5.5L19 7.5C19 9 18.1 9.5 17 9.5L11 9.5C9.9 9.5 9 9 9 7.5L9 5.5C9 4 9.9 3.5 11 3.5L17 3.5Z" fill-rule="nonzero" stroke="rgb(41,45,50)" stroke-linecap="round" stroke-linejoin="round" stroke-width="1.5" />
			<path id="Vector" opacity="0" />
		</g>
	</g>
</svg>
