<svg>
	<symbol id="arrow-catalog-categories" viewBox="0 0 27 27" xmlns="http://www.w3.org/2000/svg" fill="none" customFrame="currentColor">
		<path d="M26.004 26.004L1.00403 1.00403M7.66474 26.004L26.004 26.004L26.004 7.66474" fill-rule="nonzero" stroke="currentColor" stroke-linecap="round" stroke-linejoin="round" stroke-width="2" />
	</symbol>
	<symbol id="arrow-catalog-btn" viewBox="0 0 12 6" xmlns="http://www.w3.org/2000/svg" fill="none">
		<path d="M6.00125 6.00125C5.7676 6.00171 5.54116 5.92033 5.36125 5.77125L0.361252 1.77125C0.157036 1.60151 0.0286112 1.3576 0.0042315 1.09318C-0.0201482 0.82875 0.0615137 0.565468 0.231252 0.361252C0.400991 0.157035 0.644902 0.0286113 0.909329 0.00423152C1.17375 -0.0201482 1.43704 0.0615131 1.64125 0.231252L6.00125 3.71125L10.3613 0.391253C10.4635 0.308187 10.5812 0.246155 10.7076 0.208723C10.8339 0.171291 10.9664 0.159198 11.0974 0.173137C11.2285 0.187076 11.3554 0.226773 11.4711 0.289947C11.5867 0.35312 11.6887 0.438526 11.7713 0.541252C11.8628 0.644074 11.9322 0.7647 11.975 0.895574C12.0178 1.02645 12.0331 1.16475 12.0199 1.30181C12.0068 1.43887 11.9655 1.57175 11.8986 1.6921C11.8317 1.81246 11.7407 1.91771 11.6313 2.00125L6.63125 5.83125C6.44617 5.95677 6.22435 6.01662 6.00125 6.00125Z" fill="currentColor" fill-rule="nonzero" />
	</symbol>
	<symbol id="arrow-catalog-card" xmlns="http://www.w3.org/2000/svg"  fill="none" >
		<rect id="vuesax/linear/arrow-down"  x="0" y="0" fill="currentColor" fill-opacity="0" />
		<g id="vuesax/linear/arrow-down">
			<g id="arrow-down">
				<path d="M18.0697 14.4299L11.9997 20.4999L5.92969 14.4299" fill-rule="nonzero" stroke="currentColor" stroke-linecap="round" stroke-linejoin="round" stroke-width="2" />
				<path d="M0 0L16.83 0" stroke="currentColor" stroke-linecap="round" stroke-linejoin="round" stroke-width="2" transform="matrix(0,1,-1,0,12,3.5)" />
				<path opacity="0" transform="matrix(-1,-1.22465e-16,1.22465e-16,-1,24,24)" />
			</g>
		</g>
	</symbol>
	<symbol id="filter" xmlns="http://www.w3.org/2000/svg"  fill="none">
		<rect id="vuesax/linear/candle-2"  x="0" y="0" fill="rgb(255,255,255)" fill-opacity="0" />
		<g id="vuesax/linear/candle-2">
			<g id="candle-2">
				<path d="M22 17.5L15 17.5" stroke="currentColor" stroke-linecap="round" stroke-linejoin="round" stroke-width="1.5" />
				<path d="M5 17.5L2 17.5" stroke="currentColor" stroke-linecap="round" stroke-linejoin="round" stroke-width="1.5" />
				<path d="M22 6.5L19 6.5" stroke="currentColor" stroke-linecap="round" stroke-linejoin="round" stroke-width="1.5" />
				<path d="M9 6.5L2 6.5" stroke="currentColor" stroke-linecap="round" stroke-linejoin="round" stroke-width="1.5" />
				<path d="M13 14.5C14.1 14.5 15 15 15 16.5L15 18.5C15 20 14.1 20.5 13 20.5L7 20.5C5.9 20.5 5 20 5 18.5L5 16.5C5 15 5.9 14.5 7 14.5L13 14.5Z" fill-rule="nonzero" stroke="currentColor" stroke-linecap="round" stroke-linejoin="round" stroke-width="1.5" />
				<path d="M17 3.5C18.1 3.5 19 4 19 5.5L19 7.5C19 9 18.1 9.5 17 9.5L11 9.5C9.9 9.5 9 9 9 7.5L9 5.5C9 4 9.9 3.5 11 3.5L17 3.5Z" fill-rule="nonzero" stroke="currentColor" stroke-linecap="round" stroke-linejoin="round" stroke-width="1.5" />
				<path opacity="0" />
			</g>
		</g>
	</symbol>
	<symbol id="arrow-hero-btn" xmlns="http://www.w3.org/2000/svg" width="24" height="24" fill="none">
		<rect id="vuesax/linear/arrow-right" width="24" height="24" x="0" y="0" />
		<g id="vuesax/linear/arrow-right">
			<g id="arrow-right">
				<path d="M14.4299 5.92999L20.4999 12L14.4299 18.07" fill-rule="nonzero" stroke="currentColor" stroke-linecap="round" stroke-linejoin="round" stroke-width="1.5" />
				<path d="M3.5 12L20.33 12" stroke="currentColor" stroke-linecap="round" stroke-linejoin="round" stroke-width="1.5" />
				<path opacity="0" transform="matrix(-1,-1.22465e-16,1.22465e-16,-1,24,24)" />
			</g>
		</g>
	</symbol>
	<symbol id="info-circle" viewBox="0 0 14 14" fill="none" xmlns="http://www.w3.org/2000/svg">
		<path d="M6.99984 12.8333C10.2082 12.8333 12.8332 10.2083 12.8332 7C12.8332 3.79166 10.2082 1.16666 6.99984 1.16666C3.7915 1.16666 1.1665 3.79166 1.1665 7C1.1665 10.2083 3.7915 12.8333 6.99984 12.8333Z" stroke="currentColor" stroke-linecap="round" stroke-linejoin="round"/>
		<path d="M7 4.66666V7.58333" stroke="currentColor" stroke-linecap="round" stroke-linejoin="round"/>
		<path d="M6.99658 9.33334H7.00182" stroke="currentColor" stroke-linecap="round" stroke-linejoin="round"/>
	</symbol>
	<symbol id="close" viewBox="0 0 24 24" fill="none" xmlns="http://www.w3.org/2000/svg">
		<path d="M18 6L6 18M6 6L18 18" stroke="currentColor" stroke-width="2" stroke-linecap="round" stroke-linejoin="round"/>
	</symbol>
	<symbol id="close" viewBox="0 0 19 19" fill="none" xmlns="http://www.w3.org/2000/svg">
		<path d="M1.1875 1.1875L18.0996 17.8621" stroke="currentColor" stroke-width="1.5" stroke-linecap="round" stroke-linejoin="round"/>
		<path d="M18.0996 1.1875L1.18748 17.8621" stroke="currentColor" stroke-width="1.5" stroke-linecap="round" stroke-linejoin="round"/>
	</symbol>
</svg>