<svg width="65" height="65" viewBox="0 0 65 65" fill="none" xmlns="http://www.w3.org/2000/svg">
<path d="M24.1267 56.8749H48.9915C50.0601 56.8738 51.1034 56.5898 51.9852 56.06C52.867 55.5301 53.5464 54.779 53.9345 53.9048L62.1879 36.717C62.4398 36.1485 62.5675 35.5435 62.5644 34.9336V30.0334C62.5644 27.3555 60.107 24.3718 57.0965 24.3718H39.8696L42.4723 14.0267L42.5598 13.2653C42.5594 12.3017 42.1286 11.3767 41.3599 10.689L38.4401 8.12502L20.2242 24.2908C19.1992 25.2092 18.6278 26.4455 18.6339 27.7314V52.1022C18.6359 52.7328 18.7798 53.3567 19.0573 53.9383C19.3347 54.5198 19.7403 55.0475 20.2507 55.491C20.7612 55.9345 21.3663 56.285 22.0315 56.5225C22.6967 56.76 23.4087 56.8798 24.1267 56.8749V56.8749Z" stroke="#DF0000" stroke-width="4" stroke-linejoin="round"/>
<path d="M2.43896 28.4408H11.6953V56.875H2.43896V28.4408Z" stroke="#DF0000" stroke-width="4" stroke-linejoin="round"/>
</svg>
