<svg width="24" height="24" viewBox="0 0 24 24" fill="none" xmlns="http://www.w3.org/2000/svg">
<path d="M15.6526 6.63208L6.35258 16.0884C6.04469 16.4282 5.87927 16.8734 5.89055 17.3318C5.90184 17.7902 6.08897 18.2267 6.41321 18.5509C6.73745 18.8751 7.17396 19.0623 7.63236 19.0736C8.09076 19.0849 8.53595 18.9194 8.87575 18.6115L19.9621 7.36893C20.5778 6.68933 20.9087 5.79896 20.8861 4.88215C20.8635 3.96535 20.4893 3.09233 19.8408 2.44386C19.1923 1.79539 18.3193 1.42112 17.4025 1.39854C16.4857 1.37597 15.5953 1.70682 14.9157 2.3226L3.82941 13.5652C2.82564 14.569 2.26172 15.9304 2.26172 17.35C2.26172 18.7695 2.82564 20.1309 3.82941 21.1347C4.83319 22.1385 6.19461 22.7024 7.61416 22.7024C9.03372 22.7024 10.3951 22.1385 11.3989 21.1347L20.5649 11.991" stroke="black" stroke-width="1.5" stroke-linecap="round" stroke-linejoin="round"/>
</svg>
